<svg width="96" height="101" viewBox="0 0 96 101" fill="none" xmlns="http://www.w3.org/2000/svg">
<path d="M80 0H16V8.41667H80V0ZM16 101H80V92.5833H16V101ZM80 16.8333H16C13.8783 16.8333 11.8434 17.7201 10.3431 19.2985C8.84285 20.8769 8 23.0178 8 25.25V75.75C8 77.9822 8.84285 80.1231 10.3431 81.7015C11.8434 83.2799 13.8783 84.1667 16 84.1667H80C82.1217 84.1667 84.1566 83.2799 85.6569 81.7015C87.1571 80.1231 88 77.9822 88 75.75V25.25C88 23.0178 87.1571 20.8769 85.6569 19.2985C84.1566 17.7201 82.1217 16.8333 80 16.8333V16.8333ZM48 28.4063C50.3869 28.4063 52.6761 29.4038 54.364 31.1796C56.0518 32.9553 57 35.3637 57 37.875C57 40.3863 56.0518 42.7947 54.364 44.5704C52.6761 46.3462 50.3869 47.3438 48 47.3438C45.6131 47.3438 43.3239 46.3462 41.636 44.5704C39.9482 42.7947 39 40.3863 39 37.875C39 35.3637 39.9482 32.9553 41.636 31.1796C43.3239 29.4038 45.6131 28.4063 48 28.4063V28.4063ZM68 71.5417H28V65.2292C28 58.2013 41.32 54.7083 48 54.7083C54.68 54.7083 68 58.2013 68 65.2292V71.5417Z" fill="black"/>
</svg>
